<mxfile host="app.diagrams.net" modified="2023-11-16T23:35:51.571Z" agent="Mozilla/5.0 (Windows NT 10.0; Win64; x64) AppleWebKit/537.36 (KHTML, like Gecko) Chrome/119.0.0.0 Safari/537.36" etag="4BZFo4prL3GFY_OB8JqY" version="22.1.2" type="device">
  <diagram name="Page-1" id="KJeR-6iOu1gyfQtUOH7p">
    <mxGraphModel dx="3471" dy="1800" grid="1" gridSize="10" guides="1" tooltips="1" connect="1" arrows="1" fold="1" page="1" pageScale="1" pageWidth="850" pageHeight="1100" math="0" shadow="0">
      <root>
        <mxCell id="0" />
        <mxCell id="1" parent="0" />
        <mxCell id="jSa6UbDtJT3EHKXAqKy7-3" value="" style="rounded=0;whiteSpace=wrap;html=1;" parent="1" vertex="1">
          <mxGeometry x="426.25" y="40" width="710" height="1270" as="geometry" />
        </mxCell>
        <mxCell id="Uce3np_s1-tXbYtXFm9n-107" style="rounded=0;orthogonalLoop=1;jettySize=auto;html=1;exitX=1;exitY=0.3333333333333333;exitDx=0;exitDy=0;exitPerimeter=0;entryX=0;entryY=0.5;entryDx=0;entryDy=0;" edge="1" parent="1" source="jSa6UbDtJT3EHKXAqKy7-2" target="Uce3np_s1-tXbYtXFm9n-55">
          <mxGeometry relative="1" as="geometry" />
        </mxCell>
        <mxCell id="Uce3np_s1-tXbYtXFm9n-108" style="rounded=0;orthogonalLoop=1;jettySize=auto;html=1;exitX=1;exitY=0.3333333333333333;exitDx=0;exitDy=0;exitPerimeter=0;entryX=0;entryY=0.5;entryDx=0;entryDy=0;" edge="1" parent="1" source="jSa6UbDtJT3EHKXAqKy7-2" target="Uce3np_s1-tXbYtXFm9n-57">
          <mxGeometry relative="1" as="geometry" />
        </mxCell>
        <mxCell id="Uce3np_s1-tXbYtXFm9n-109" style="rounded=0;orthogonalLoop=1;jettySize=auto;html=1;exitX=1;exitY=0.3333333333333333;exitDx=0;exitDy=0;exitPerimeter=0;entryX=0;entryY=0;entryDx=0;entryDy=0;" edge="1" parent="1" source="jSa6UbDtJT3EHKXAqKy7-2" target="Uce3np_s1-tXbYtXFm9n-65">
          <mxGeometry relative="1" as="geometry" />
        </mxCell>
        <mxCell id="Uce3np_s1-tXbYtXFm9n-110" style="rounded=0;orthogonalLoop=1;jettySize=auto;html=1;exitX=1;exitY=0.3333333333333333;exitDx=0;exitDy=0;exitPerimeter=0;entryX=0;entryY=0;entryDx=0;entryDy=0;" edge="1" parent="1" source="jSa6UbDtJT3EHKXAqKy7-2" target="Uce3np_s1-tXbYtXFm9n-69">
          <mxGeometry relative="1" as="geometry" />
        </mxCell>
        <mxCell id="Uce3np_s1-tXbYtXFm9n-111" style="rounded=0;orthogonalLoop=1;jettySize=auto;html=1;exitX=1;exitY=0.3333333333333333;exitDx=0;exitDy=0;exitPerimeter=0;entryX=0;entryY=0.5;entryDx=0;entryDy=0;" edge="1" parent="1" source="jSa6UbDtJT3EHKXAqKy7-2" target="Uce3np_s1-tXbYtXFm9n-60">
          <mxGeometry relative="1" as="geometry">
            <Array as="points">
              <mxPoint x="470" y="960" />
            </Array>
          </mxGeometry>
        </mxCell>
        <mxCell id="Uce3np_s1-tXbYtXFm9n-112" style="rounded=0;orthogonalLoop=1;jettySize=auto;html=1;exitX=1;exitY=0.3333333333333333;exitDx=0;exitDy=0;exitPerimeter=0;entryX=0;entryY=0.5;entryDx=0;entryDy=0;" edge="1" parent="1" source="jSa6UbDtJT3EHKXAqKy7-2" target="Uce3np_s1-tXbYtXFm9n-54">
          <mxGeometry relative="1" as="geometry" />
        </mxCell>
        <mxCell id="Uce3np_s1-tXbYtXFm9n-113" style="rounded=0;orthogonalLoop=1;jettySize=auto;html=1;exitX=1;exitY=0.3333333333333333;exitDx=0;exitDy=0;exitPerimeter=0;entryX=0;entryY=0.5;entryDx=0;entryDy=0;" edge="1" parent="1" source="jSa6UbDtJT3EHKXAqKy7-2" target="Uce3np_s1-tXbYtXFm9n-56">
          <mxGeometry relative="1" as="geometry">
            <Array as="points">
              <mxPoint x="470" y="1180" />
            </Array>
          </mxGeometry>
        </mxCell>
        <mxCell id="Uce3np_s1-tXbYtXFm9n-114" style="rounded=0;orthogonalLoop=1;jettySize=auto;html=1;exitX=1;exitY=0.3333333333333333;exitDx=0;exitDy=0;exitPerimeter=0;entryX=0;entryY=0.5;entryDx=0;entryDy=0;" edge="1" parent="1" source="jSa6UbDtJT3EHKXAqKy7-2" target="Uce3np_s1-tXbYtXFm9n-61">
          <mxGeometry relative="1" as="geometry">
            <Array as="points">
              <mxPoint x="450" y="1250" />
            </Array>
          </mxGeometry>
        </mxCell>
        <mxCell id="jSa6UbDtJT3EHKXAqKy7-2" value="User" style="shape=umlActor;verticalLabelPosition=bottom;verticalAlign=top;html=1;outlineConnect=0;" parent="1" vertex="1">
          <mxGeometry x="300" y="415" width="30" height="60" as="geometry" />
        </mxCell>
        <mxCell id="jSa6UbDtJT3EHKXAqKy7-4" value="Calculate fuel based emissions" style="ellipse;whiteSpace=wrap;html=1;" parent="1" vertex="1">
          <mxGeometry x="645" y="100" width="280" height="40" as="geometry" />
        </mxCell>
        <mxCell id="jSa6UbDtJT3EHKXAqKy7-5" value="Calculate Road transportation based emissions" style="ellipse;whiteSpace=wrap;html=1;" parent="1" vertex="1">
          <mxGeometry x="647.5" y="150" width="275" height="40" as="geometry" />
        </mxCell>
        <mxCell id="jSa6UbDtJT3EHKXAqKy7-6" value="Calculate Rail transportation based emissions" style="ellipse;whiteSpace=wrap;html=1;" parent="1" vertex="1">
          <mxGeometry x="645" y="200" width="280" height="40" as="geometry" />
        </mxCell>
        <mxCell id="jSa6UbDtJT3EHKXAqKy7-18" value="Use Cases" style="text;html=1;strokeColor=none;fillColor=none;align=center;verticalAlign=middle;whiteSpace=wrap;rounded=0;" parent="1" vertex="1">
          <mxGeometry x="740" y="50" width="90" height="30" as="geometry" />
        </mxCell>
        <mxCell id="Uce3np_s1-tXbYtXFm9n-115" style="rounded=0;orthogonalLoop=1;jettySize=auto;html=1;exitX=0;exitY=0.3333333333333333;exitDx=0;exitDy=0;exitPerimeter=0;entryX=1;entryY=0.5;entryDx=0;entryDy=0;" edge="1" parent="1" source="jSa6UbDtJT3EHKXAqKy7-19" target="jSa6UbDtJT3EHKXAqKy7-4">
          <mxGeometry relative="1" as="geometry" />
        </mxCell>
        <mxCell id="Uce3np_s1-tXbYtXFm9n-116" style="rounded=0;orthogonalLoop=1;jettySize=auto;html=1;exitX=0;exitY=0.3333333333333333;exitDx=0;exitDy=0;exitPerimeter=0;entryX=1;entryY=0.5;entryDx=0;entryDy=0;" edge="1" parent="1" source="jSa6UbDtJT3EHKXAqKy7-19" target="jSa6UbDtJT3EHKXAqKy7-5">
          <mxGeometry relative="1" as="geometry" />
        </mxCell>
        <mxCell id="Uce3np_s1-tXbYtXFm9n-117" style="rounded=0;orthogonalLoop=1;jettySize=auto;html=1;exitX=0;exitY=0.3333333333333333;exitDx=0;exitDy=0;exitPerimeter=0;entryX=1;entryY=0.5;entryDx=0;entryDy=0;" edge="1" parent="1" source="jSa6UbDtJT3EHKXAqKy7-19" target="jSa6UbDtJT3EHKXAqKy7-6">
          <mxGeometry relative="1" as="geometry" />
        </mxCell>
        <mxCell id="Uce3np_s1-tXbYtXFm9n-118" style="rounded=0;orthogonalLoop=1;jettySize=auto;html=1;exitX=0;exitY=0.3333333333333333;exitDx=0;exitDy=0;exitPerimeter=0;entryX=1;entryY=0.5;entryDx=0;entryDy=0;" edge="1" parent="1" source="jSa6UbDtJT3EHKXAqKy7-19" target="Uce3np_s1-tXbYtXFm9n-53">
          <mxGeometry relative="1" as="geometry" />
        </mxCell>
        <mxCell id="Uce3np_s1-tXbYtXFm9n-119" style="rounded=0;orthogonalLoop=1;jettySize=auto;html=1;exitX=0;exitY=0.3333333333333333;exitDx=0;exitDy=0;exitPerimeter=0;entryX=1;entryY=0.5;entryDx=0;entryDy=0;" edge="1" parent="1" source="jSa6UbDtJT3EHKXAqKy7-19" target="Uce3np_s1-tXbYtXFm9n-54">
          <mxGeometry relative="1" as="geometry" />
        </mxCell>
        <mxCell id="Uce3np_s1-tXbYtXFm9n-120" style="rounded=0;orthogonalLoop=1;jettySize=auto;html=1;exitX=0;exitY=0.3333333333333333;exitDx=0;exitDy=0;exitPerimeter=0;entryX=1;entryY=0.5;entryDx=0;entryDy=0;" edge="1" parent="1" source="jSa6UbDtJT3EHKXAqKy7-19" target="Uce3np_s1-tXbYtXFm9n-55">
          <mxGeometry relative="1" as="geometry" />
        </mxCell>
        <mxCell id="Uce3np_s1-tXbYtXFm9n-121" style="rounded=0;orthogonalLoop=1;jettySize=auto;html=1;exitX=0;exitY=0.3333333333333333;exitDx=0;exitDy=0;exitPerimeter=0;entryX=1;entryY=0.5;entryDx=0;entryDy=0;" edge="1" parent="1" source="jSa6UbDtJT3EHKXAqKy7-19" target="Uce3np_s1-tXbYtXFm9n-57">
          <mxGeometry relative="1" as="geometry" />
        </mxCell>
        <mxCell id="Uce3np_s1-tXbYtXFm9n-122" style="rounded=0;orthogonalLoop=1;jettySize=auto;html=1;exitX=0;exitY=0.3333333333333333;exitDx=0;exitDy=0;exitPerimeter=0;entryX=1;entryY=0.5;entryDx=0;entryDy=0;" edge="1" parent="1" source="jSa6UbDtJT3EHKXAqKy7-19" target="Uce3np_s1-tXbYtXFm9n-58">
          <mxGeometry relative="1" as="geometry" />
        </mxCell>
        <mxCell id="Uce3np_s1-tXbYtXFm9n-123" style="rounded=0;orthogonalLoop=1;jettySize=auto;html=1;exitX=0;exitY=0.3333333333333333;exitDx=0;exitDy=0;exitPerimeter=0;entryX=1;entryY=0.5;entryDx=0;entryDy=0;" edge="1" parent="1" source="jSa6UbDtJT3EHKXAqKy7-19" target="Uce3np_s1-tXbYtXFm9n-59">
          <mxGeometry relative="1" as="geometry">
            <Array as="points">
              <mxPoint x="1110" y="740" />
            </Array>
          </mxGeometry>
        </mxCell>
        <mxCell id="Uce3np_s1-tXbYtXFm9n-124" style="rounded=0;orthogonalLoop=1;jettySize=auto;html=1;exitX=0;exitY=0.3333333333333333;exitDx=0;exitDy=0;exitPerimeter=0;entryX=1;entryY=0.5;entryDx=0;entryDy=0;" edge="1" parent="1" source="jSa6UbDtJT3EHKXAqKy7-19" target="Uce3np_s1-tXbYtXFm9n-60">
          <mxGeometry relative="1" as="geometry">
            <Array as="points">
              <mxPoint x="1110" y="960" />
            </Array>
          </mxGeometry>
        </mxCell>
        <mxCell id="Uce3np_s1-tXbYtXFm9n-125" style="rounded=0;orthogonalLoop=1;jettySize=auto;html=1;exitX=0;exitY=0.3333333333333333;exitDx=0;exitDy=0;exitPerimeter=0;entryX=1;entryY=0.5;entryDx=0;entryDy=0;" edge="1" parent="1" source="jSa6UbDtJT3EHKXAqKy7-19" target="Uce3np_s1-tXbYtXFm9n-56">
          <mxGeometry relative="1" as="geometry">
            <Array as="points">
              <mxPoint x="1110" y="1180" />
            </Array>
          </mxGeometry>
        </mxCell>
        <mxCell id="Uce3np_s1-tXbYtXFm9n-127" style="rounded=0;orthogonalLoop=1;jettySize=auto;html=1;exitX=0;exitY=0.3333333333333333;exitDx=0;exitDy=0;exitPerimeter=0;entryX=1;entryY=0.5;entryDx=0;entryDy=0;" edge="1" parent="1" source="jSa6UbDtJT3EHKXAqKy7-19" target="Uce3np_s1-tXbYtXFm9n-61">
          <mxGeometry relative="1" as="geometry">
            <Array as="points">
              <mxPoint x="1120" y="1250" />
            </Array>
          </mxGeometry>
        </mxCell>
        <mxCell id="jSa6UbDtJT3EHKXAqKy7-19" value="Admin" style="shape=umlActor;verticalLabelPosition=bottom;verticalAlign=top;html=1;outlineConnect=0;" parent="1" vertex="1">
          <mxGeometry x="1290" y="285" width="30" height="60" as="geometry" />
        </mxCell>
        <mxCell id="jSa6UbDtJT3EHKXAqKy7-29" value="" style="endArrow=none;html=1;rounded=0;exitX=1;exitY=0.3333333333333333;exitDx=0;exitDy=0;exitPerimeter=0;entryX=0.004;entryY=0.402;entryDx=0;entryDy=0;entryPerimeter=0;" parent="1" source="jSa6UbDtJT3EHKXAqKy7-2" target="jSa6UbDtJT3EHKXAqKy7-4" edge="1">
          <mxGeometry width="50" height="50" relative="1" as="geometry">
            <mxPoint x="850" y="430" as="sourcePoint" />
            <mxPoint x="900" y="380" as="targetPoint" />
          </mxGeometry>
        </mxCell>
        <mxCell id="jSa6UbDtJT3EHKXAqKy7-30" value="" style="endArrow=none;html=1;rounded=0;exitX=1;exitY=0.3333333333333333;exitDx=0;exitDy=0;exitPerimeter=0;entryX=0;entryY=0.5;entryDx=0;entryDy=0;" parent="1" source="jSa6UbDtJT3EHKXAqKy7-2" target="jSa6UbDtJT3EHKXAqKy7-5" edge="1">
          <mxGeometry width="50" height="50" relative="1" as="geometry">
            <mxPoint x="340" y="445" as="sourcePoint" />
            <mxPoint x="536" y="126" as="targetPoint" />
          </mxGeometry>
        </mxCell>
        <mxCell id="jSa6UbDtJT3EHKXAqKy7-31" value="" style="endArrow=none;html=1;rounded=0;exitX=1;exitY=0.3333333333333333;exitDx=0;exitDy=0;exitPerimeter=0;entryX=0;entryY=0.5;entryDx=0;entryDy=0;" parent="1" source="jSa6UbDtJT3EHKXAqKy7-2" target="jSa6UbDtJT3EHKXAqKy7-6" edge="1">
          <mxGeometry width="50" height="50" relative="1" as="geometry">
            <mxPoint x="850" y="500" as="sourcePoint" />
            <mxPoint x="900" y="450" as="targetPoint" />
          </mxGeometry>
        </mxCell>
        <mxCell id="Uce3np_s1-tXbYtXFm9n-53" value="Calculate Ocean transportation based emissions" style="ellipse;whiteSpace=wrap;html=1;" vertex="1" parent="1">
          <mxGeometry x="645" y="250" width="280" height="40" as="geometry" />
        </mxCell>
        <mxCell id="Uce3np_s1-tXbYtXFm9n-54" value="Calculate Inland waterway transportation based emissions" style="ellipse;whiteSpace=wrap;html=1;" vertex="1" parent="1">
          <mxGeometry x="645" y="300" width="280" height="70" as="geometry" />
        </mxCell>
        <mxCell id="Uce3np_s1-tXbYtXFm9n-55" value="Categorize calculations in Scope 1, 2 and 3" style="ellipse;whiteSpace=wrap;html=1;" vertex="1" parent="1">
          <mxGeometry x="645" y="390" width="280" height="40" as="geometry" />
        </mxCell>
        <mxCell id="Uce3np_s1-tXbYtXFm9n-56" value="API overview" style="ellipse;whiteSpace=wrap;html=1;" vertex="1" parent="1">
          <mxGeometry x="643.75" y="1160" width="280" height="40" as="geometry" />
        </mxCell>
        <mxCell id="Uce3np_s1-tXbYtXFm9n-57" value="Perform batch calculations" style="ellipse;whiteSpace=wrap;html=1;" vertex="1" parent="1">
          <mxGeometry x="645" y="450" width="280" height="40" as="geometry" />
        </mxCell>
        <mxCell id="Uce3np_s1-tXbYtXFm9n-58" value="Manage Fuel emission factors" style="ellipse;whiteSpace=wrap;html=1;" vertex="1" parent="1">
          <mxGeometry x="645" y="510" width="280" height="40" as="geometry" />
        </mxCell>
        <mxCell id="Uce3np_s1-tXbYtXFm9n-59" value="Manage Intensity emission factors" style="ellipse;whiteSpace=wrap;html=1;" vertex="1" parent="1">
          <mxGeometry x="642.5" y="740" width="280" height="40" as="geometry" />
        </mxCell>
        <mxCell id="Uce3np_s1-tXbYtXFm9n-60" value="Manage emission calculations" style="ellipse;whiteSpace=wrap;html=1;" vertex="1" parent="1">
          <mxGeometry x="645" y="940" width="280" height="40" as="geometry" />
        </mxCell>
        <mxCell id="Uce3np_s1-tXbYtXFm9n-61" value="User authentication" style="ellipse;whiteSpace=wrap;html=1;" vertex="1" parent="1">
          <mxGeometry x="641.25" y="1230" width="280" height="40" as="geometry" />
        </mxCell>
        <mxCell id="Uce3np_s1-tXbYtXFm9n-62" style="rounded=0;orthogonalLoop=1;jettySize=auto;html=1;exitX=1;exitY=0.3333333333333333;exitDx=0;exitDy=0;exitPerimeter=0;entryX=0;entryY=0.5;entryDx=0;entryDy=0;endArrow=none;endFill=0;" edge="1" parent="1" source="jSa6UbDtJT3EHKXAqKy7-2" target="Uce3np_s1-tXbYtXFm9n-53">
          <mxGeometry relative="1" as="geometry" />
        </mxCell>
        <mxCell id="Uce3np_s1-tXbYtXFm9n-78" value="" style="group" vertex="1" connectable="0" parent="1">
          <mxGeometry x="500" y="620" width="610" height="60" as="geometry" />
        </mxCell>
        <mxCell id="Uce3np_s1-tXbYtXFm9n-64" value="Create Fuel &lt;br&gt;emission factors" style="ellipse;whiteSpace=wrap;html=1;" vertex="1" parent="Uce3np_s1-tXbYtXFm9n-78">
          <mxGeometry x="170" width="120" height="60" as="geometry" />
        </mxCell>
        <mxCell id="Uce3np_s1-tXbYtXFm9n-65" value="Read Fuel &lt;br&gt;emission factors" style="ellipse;whiteSpace=wrap;html=1;" vertex="1" parent="Uce3np_s1-tXbYtXFm9n-78">
          <mxGeometry width="120" height="60" as="geometry" />
        </mxCell>
        <mxCell id="Uce3np_s1-tXbYtXFm9n-66" value="Update Fuel &lt;br&gt;emission factors" style="ellipse;whiteSpace=wrap;html=1;" vertex="1" parent="Uce3np_s1-tXbYtXFm9n-78">
          <mxGeometry x="330" width="120" height="60" as="geometry" />
        </mxCell>
        <mxCell id="Uce3np_s1-tXbYtXFm9n-67" value="Delete Fuel &lt;br&gt;emission factors" style="ellipse;whiteSpace=wrap;html=1;" vertex="1" parent="Uce3np_s1-tXbYtXFm9n-78">
          <mxGeometry x="490" width="120" height="60" as="geometry" />
        </mxCell>
        <mxCell id="Uce3np_s1-tXbYtXFm9n-76" style="edgeStyle=orthogonalEdgeStyle;rounded=0;orthogonalLoop=1;jettySize=auto;html=1;exitX=0.5;exitY=1;exitDx=0;exitDy=0;" edge="1" parent="Uce3np_s1-tXbYtXFm9n-78" source="Uce3np_s1-tXbYtXFm9n-67" target="Uce3np_s1-tXbYtXFm9n-67">
          <mxGeometry relative="1" as="geometry" />
        </mxCell>
        <mxCell id="Uce3np_s1-tXbYtXFm9n-79" value="" style="group" vertex="1" connectable="0" parent="1">
          <mxGeometry x="500" y="850" width="605" height="60" as="geometry" />
        </mxCell>
        <mxCell id="Uce3np_s1-tXbYtXFm9n-68" value="Create Intensity&lt;br&gt;emission factors" style="ellipse;whiteSpace=wrap;html=1;" vertex="1" parent="Uce3np_s1-tXbYtXFm9n-79">
          <mxGeometry x="160" width="120" height="60" as="geometry" />
        </mxCell>
        <mxCell id="Uce3np_s1-tXbYtXFm9n-69" value="Read Intensity&lt;br&gt;emission factors" style="ellipse;whiteSpace=wrap;html=1;" vertex="1" parent="Uce3np_s1-tXbYtXFm9n-79">
          <mxGeometry width="120" height="60" as="geometry" />
        </mxCell>
        <mxCell id="Uce3np_s1-tXbYtXFm9n-70" value="Update Intensity&lt;br&gt;emission factors" style="ellipse;whiteSpace=wrap;html=1;" vertex="1" parent="Uce3np_s1-tXbYtXFm9n-79">
          <mxGeometry x="320" width="120" height="60" as="geometry" />
        </mxCell>
        <mxCell id="Uce3np_s1-tXbYtXFm9n-71" value="Delete Intensity&lt;br&gt;emission factors" style="ellipse;whiteSpace=wrap;html=1;" vertex="1" parent="Uce3np_s1-tXbYtXFm9n-79">
          <mxGeometry x="485" width="120" height="60" as="geometry" />
        </mxCell>
        <mxCell id="Uce3np_s1-tXbYtXFm9n-80" value="" style="group" vertex="1" connectable="0" parent="1">
          <mxGeometry x="485" y="1060" width="615" height="60" as="geometry" />
        </mxCell>
        <mxCell id="Uce3np_s1-tXbYtXFm9n-72" value="Create emission calculations" style="ellipse;whiteSpace=wrap;html=1;" vertex="1" parent="Uce3np_s1-tXbYtXFm9n-80">
          <mxGeometry width="120" height="60" as="geometry" />
        </mxCell>
        <mxCell id="Uce3np_s1-tXbYtXFm9n-73" value="Read emission calculations" style="ellipse;whiteSpace=wrap;html=1;" vertex="1" parent="Uce3np_s1-tXbYtXFm9n-80">
          <mxGeometry x="160" width="120" height="60" as="geometry" />
        </mxCell>
        <mxCell id="Uce3np_s1-tXbYtXFm9n-74" value="Update emission calculations" style="ellipse;whiteSpace=wrap;html=1;" vertex="1" parent="Uce3np_s1-tXbYtXFm9n-80">
          <mxGeometry x="340" width="120" height="60" as="geometry" />
        </mxCell>
        <mxCell id="Uce3np_s1-tXbYtXFm9n-75" value="Delete emission calculations" style="ellipse;whiteSpace=wrap;html=1;" vertex="1" parent="Uce3np_s1-tXbYtXFm9n-80">
          <mxGeometry x="495" width="120" height="60" as="geometry" />
        </mxCell>
        <mxCell id="Uce3np_s1-tXbYtXFm9n-81" style="rounded=0;orthogonalLoop=1;jettySize=auto;html=1;exitX=0.5;exitY=0;exitDx=0;exitDy=0;entryX=0;entryY=1;entryDx=0;entryDy=0;endArrow=open;endFill=0;dashed=1;" edge="1" parent="1" source="Uce3np_s1-tXbYtXFm9n-65" target="Uce3np_s1-tXbYtXFm9n-58">
          <mxGeometry relative="1" as="geometry" />
        </mxCell>
        <mxCell id="Uce3np_s1-tXbYtXFm9n-101" value="extends" style="edgeLabel;html=1;align=center;verticalAlign=middle;resizable=0;points=[];" vertex="1" connectable="0" parent="Uce3np_s1-tXbYtXFm9n-81">
          <mxGeometry x="0.232" y="1" relative="1" as="geometry">
            <mxPoint x="1" as="offset" />
          </mxGeometry>
        </mxCell>
        <mxCell id="Uce3np_s1-tXbYtXFm9n-82" style="rounded=0;orthogonalLoop=1;jettySize=auto;html=1;exitX=0.5;exitY=0;exitDx=0;exitDy=0;entryX=0.315;entryY=0.954;entryDx=0;entryDy=0;entryPerimeter=0;endArrow=open;endFill=0;dashed=1;" edge="1" parent="1" source="Uce3np_s1-tXbYtXFm9n-64" target="Uce3np_s1-tXbYtXFm9n-58">
          <mxGeometry relative="1" as="geometry" />
        </mxCell>
        <mxCell id="Uce3np_s1-tXbYtXFm9n-100" value="extends" style="edgeLabel;html=1;align=center;verticalAlign=middle;resizable=0;points=[];" vertex="1" connectable="0" parent="Uce3np_s1-tXbYtXFm9n-82">
          <mxGeometry x="0.1173" relative="1" as="geometry">
            <mxPoint as="offset" />
          </mxGeometry>
        </mxCell>
        <mxCell id="Uce3np_s1-tXbYtXFm9n-83" style="rounded=0;orthogonalLoop=1;jettySize=auto;html=1;exitX=0.5;exitY=0;exitDx=0;exitDy=0;entryX=0.719;entryY=0.97;entryDx=0;entryDy=0;endArrow=open;endFill=0;dashed=1;entryPerimeter=0;" edge="1" parent="1" source="Uce3np_s1-tXbYtXFm9n-66" target="Uce3np_s1-tXbYtXFm9n-58">
          <mxGeometry relative="1" as="geometry" />
        </mxCell>
        <mxCell id="Uce3np_s1-tXbYtXFm9n-99" value="extends" style="edgeLabel;html=1;align=center;verticalAlign=middle;resizable=0;points=[];" vertex="1" connectable="0" parent="Uce3np_s1-tXbYtXFm9n-83">
          <mxGeometry x="-0.0923" relative="1" as="geometry">
            <mxPoint as="offset" />
          </mxGeometry>
        </mxCell>
        <mxCell id="Uce3np_s1-tXbYtXFm9n-84" style="rounded=0;orthogonalLoop=1;jettySize=auto;html=1;entryX=1;entryY=1;entryDx=0;entryDy=0;endArrow=open;endFill=0;dashed=1;" edge="1" parent="1" source="Uce3np_s1-tXbYtXFm9n-67" target="Uce3np_s1-tXbYtXFm9n-58">
          <mxGeometry relative="1" as="geometry" />
        </mxCell>
        <mxCell id="Uce3np_s1-tXbYtXFm9n-98" value="extends" style="edgeLabel;html=1;align=center;verticalAlign=middle;resizable=0;points=[];" vertex="1" connectable="0" parent="Uce3np_s1-tXbYtXFm9n-84">
          <mxGeometry x="-0.2213" y="-2" relative="1" as="geometry">
            <mxPoint as="offset" />
          </mxGeometry>
        </mxCell>
        <mxCell id="Uce3np_s1-tXbYtXFm9n-85" style="rounded=0;orthogonalLoop=1;jettySize=auto;html=1;exitX=0.5;exitY=0;exitDx=0;exitDy=0;entryX=0;entryY=1;entryDx=0;entryDy=0;endArrow=open;endFill=0;dashed=1;" edge="1" parent="1" source="Uce3np_s1-tXbYtXFm9n-69" target="Uce3np_s1-tXbYtXFm9n-59">
          <mxGeometry relative="1" as="geometry" />
        </mxCell>
        <mxCell id="Uce3np_s1-tXbYtXFm9n-94" value="extends" style="edgeLabel;html=1;align=center;verticalAlign=middle;resizable=0;points=[];" vertex="1" connectable="0" parent="Uce3np_s1-tXbYtXFm9n-85">
          <mxGeometry x="0.338" y="-1" relative="1" as="geometry">
            <mxPoint as="offset" />
          </mxGeometry>
        </mxCell>
        <mxCell id="Uce3np_s1-tXbYtXFm9n-86" style="rounded=0;orthogonalLoop=1;jettySize=auto;html=1;exitX=0.5;exitY=0;exitDx=0;exitDy=0;entryX=0.308;entryY=0.975;entryDx=0;entryDy=0;entryPerimeter=0;endArrow=open;endFill=0;dashed=1;" edge="1" parent="1" source="Uce3np_s1-tXbYtXFm9n-68" target="Uce3np_s1-tXbYtXFm9n-59">
          <mxGeometry relative="1" as="geometry" />
        </mxCell>
        <mxCell id="Uce3np_s1-tXbYtXFm9n-95" value="extends" style="edgeLabel;html=1;align=center;verticalAlign=middle;resizable=0;points=[];" vertex="1" connectable="0" parent="Uce3np_s1-tXbYtXFm9n-86">
          <mxGeometry x="0.0248" y="-4" relative="1" as="geometry">
            <mxPoint y="1" as="offset" />
          </mxGeometry>
        </mxCell>
        <mxCell id="Uce3np_s1-tXbYtXFm9n-87" style="rounded=0;orthogonalLoop=1;jettySize=auto;html=1;exitX=0.5;exitY=0;exitDx=0;exitDy=0;entryX=0.673;entryY=1.006;entryDx=0;entryDy=0;entryPerimeter=0;endArrow=open;endFill=0;dashed=1;" edge="1" parent="1" source="Uce3np_s1-tXbYtXFm9n-70" target="Uce3np_s1-tXbYtXFm9n-59">
          <mxGeometry relative="1" as="geometry" />
        </mxCell>
        <mxCell id="Uce3np_s1-tXbYtXFm9n-96" value="extends" style="edgeLabel;html=1;align=center;verticalAlign=middle;resizable=0;points=[];" vertex="1" connectable="0" parent="Uce3np_s1-tXbYtXFm9n-87">
          <mxGeometry x="-0.0735" relative="1" as="geometry">
            <mxPoint as="offset" />
          </mxGeometry>
        </mxCell>
        <mxCell id="Uce3np_s1-tXbYtXFm9n-88" style="rounded=0;orthogonalLoop=1;jettySize=auto;html=1;entryX=1;entryY=1;entryDx=0;entryDy=0;endArrow=open;endFill=0;dashed=1;" edge="1" parent="1" source="Uce3np_s1-tXbYtXFm9n-71" target="Uce3np_s1-tXbYtXFm9n-59">
          <mxGeometry relative="1" as="geometry" />
        </mxCell>
        <mxCell id="Uce3np_s1-tXbYtXFm9n-97" value="extends" style="edgeLabel;html=1;align=center;verticalAlign=middle;resizable=0;points=[];" vertex="1" connectable="0" parent="Uce3np_s1-tXbYtXFm9n-88">
          <mxGeometry x="-0.0044" y="-6" relative="1" as="geometry">
            <mxPoint x="-1" as="offset" />
          </mxGeometry>
        </mxCell>
        <mxCell id="Uce3np_s1-tXbYtXFm9n-90" style="rounded=0;orthogonalLoop=1;jettySize=auto;html=1;exitX=0.5;exitY=0;exitDx=0;exitDy=0;entryX=0.104;entryY=0.834;entryDx=0;entryDy=0;endArrow=open;endFill=0;dashed=1;entryPerimeter=0;" edge="1" parent="1" source="Uce3np_s1-tXbYtXFm9n-72" target="Uce3np_s1-tXbYtXFm9n-60">
          <mxGeometry relative="1" as="geometry" />
        </mxCell>
        <mxCell id="Uce3np_s1-tXbYtXFm9n-102" value="extends" style="edgeLabel;html=1;align=center;verticalAlign=middle;resizable=0;points=[];" vertex="1" connectable="0" parent="Uce3np_s1-tXbYtXFm9n-90">
          <mxGeometry x="0.3386" y="-2" relative="1" as="geometry">
            <mxPoint y="-1" as="offset" />
          </mxGeometry>
        </mxCell>
        <mxCell id="Uce3np_s1-tXbYtXFm9n-91" style="rounded=0;orthogonalLoop=1;jettySize=auto;html=1;exitX=0.5;exitY=0;exitDx=0;exitDy=0;entryX=0.26;entryY=0.968;entryDx=0;entryDy=0;entryPerimeter=0;endArrow=open;endFill=0;dashed=1;" edge="1" parent="1" source="Uce3np_s1-tXbYtXFm9n-73" target="Uce3np_s1-tXbYtXFm9n-60">
          <mxGeometry relative="1" as="geometry">
            <mxPoint x="720" y="970" as="targetPoint" />
          </mxGeometry>
        </mxCell>
        <mxCell id="Uce3np_s1-tXbYtXFm9n-104" value="extends" style="edgeLabel;html=1;align=center;verticalAlign=middle;resizable=0;points=[];" vertex="1" connectable="0" parent="Uce3np_s1-tXbYtXFm9n-91">
          <mxGeometry x="0.3479" y="-2" relative="1" as="geometry">
            <mxPoint as="offset" />
          </mxGeometry>
        </mxCell>
        <mxCell id="Uce3np_s1-tXbYtXFm9n-92" style="rounded=0;orthogonalLoop=1;jettySize=auto;html=1;exitX=0.5;exitY=0;exitDx=0;exitDy=0;entryX=0.632;entryY=1.027;entryDx=0;entryDy=0;entryPerimeter=0;endArrow=open;endFill=0;dashed=1;" edge="1" parent="1" source="Uce3np_s1-tXbYtXFm9n-74" target="Uce3np_s1-tXbYtXFm9n-60">
          <mxGeometry relative="1" as="geometry" />
        </mxCell>
        <mxCell id="Uce3np_s1-tXbYtXFm9n-105" value="extends" style="edgeLabel;html=1;align=center;verticalAlign=middle;resizable=0;points=[];" vertex="1" connectable="0" parent="Uce3np_s1-tXbYtXFm9n-92">
          <mxGeometry x="0.0832" relative="1" as="geometry">
            <mxPoint as="offset" />
          </mxGeometry>
        </mxCell>
        <mxCell id="Uce3np_s1-tXbYtXFm9n-93" style="rounded=0;orthogonalLoop=1;jettySize=auto;html=1;exitX=0.5;exitY=0;exitDx=0;exitDy=0;entryX=1;entryY=1;entryDx=0;entryDy=0;endArrow=open;endFill=0;dashed=1;" edge="1" parent="1" source="Uce3np_s1-tXbYtXFm9n-75" target="Uce3np_s1-tXbYtXFm9n-60">
          <mxGeometry relative="1" as="geometry" />
        </mxCell>
        <mxCell id="Uce3np_s1-tXbYtXFm9n-106" value="extends" style="edgeLabel;html=1;align=center;verticalAlign=middle;resizable=0;points=[];" vertex="1" connectable="0" parent="Uce3np_s1-tXbYtXFm9n-93">
          <mxGeometry x="-0.0037" relative="1" as="geometry">
            <mxPoint as="offset" />
          </mxGeometry>
        </mxCell>
      </root>
    </mxGraphModel>
  </diagram>
</mxfile>
